<mxfile host="app.diagrams.net" agent="Mozilla/5.0 (Windows NT 10.0; Win64; x64) AppleWebKit/537.36 (KHTML, like Gecko) Chrome/139.0.0.0 Safari/537.36" version="28.1.0">
  <diagram name="Page-1" id="PX7YQMbzcEBbd6iVwpfB">
    <mxGraphModel dx="1810" dy="619" grid="1" gridSize="10" guides="1" tooltips="1" connect="1" arrows="1" fold="1" page="1" pageScale="1" pageWidth="827" pageHeight="1169" math="0" shadow="0">
      <root>
        <mxCell id="0" />
        <mxCell id="1" parent="0" />
        <mxCell id="ssPy3o1DGzwiC5NNmDEJ-4" value="&lt;div&gt;&lt;font&gt;&amp;lt;&amp;lt;Observable&lt;/font&gt;&lt;/div&gt;&lt;div&gt;&lt;font&gt;Property&amp;gt;&amp;gt;&lt;/font&gt;&lt;/div&gt;&lt;font&gt;Energy Consumption&lt;/font&gt;" style="rounded=0;whiteSpace=wrap;html=1;fillColor=#b0e3e6;strokeColor=#0e8088;" parent="1" vertex="1">
          <mxGeometry x="270" y="320" width="120" height="60" as="geometry" />
        </mxCell>
        <mxCell id="ssPy3o1DGzwiC5NNmDEJ-5" value="&lt;div&gt;&lt;font&gt;&amp;lt;&amp;lt;PropertyChange&lt;/font&gt;&lt;/div&gt;&lt;div&gt;&lt;font&gt;ByActuation&amp;gt;&amp;gt;&lt;/font&gt;&lt;/div&gt;&lt;font&gt;Energy Consumption Increase&lt;/font&gt;" style="rounded=0;whiteSpace=wrap;html=1;fillColor=#d5e8d4;strokeColor=#82b366;" parent="1" vertex="1">
          <mxGeometry x="450" y="220" width="120" height="60" as="geometry" />
        </mxCell>
        <mxCell id="ssPy3o1DGzwiC5NNmDEJ-6" value="&lt;div&gt;&lt;font&gt;&amp;lt;&amp;lt;PropertyChange&amp;gt;&amp;gt;&lt;/font&gt;&lt;/div&gt;&lt;font&gt;Energy Consumption Decrease&lt;/font&gt;" style="rounded=0;whiteSpace=wrap;html=1;fillColor=#d5e8d4;strokeColor=#82b366;" parent="1" vertex="1">
          <mxGeometry x="450" y="420" width="120" height="60" as="geometry" />
        </mxCell>
        <mxCell id="ssPy3o1DGzwiC5NNmDEJ-7" value="&lt;div&gt;&lt;font&gt;&amp;lt;&amp;lt;Sensor&amp;gt;&amp;gt;&lt;/font&gt;&lt;/div&gt;&lt;font&gt;Energy Consumption Meter&lt;/font&gt;" style="rounded=0;whiteSpace=wrap;html=1;fillColor=#d0cee2;strokeColor=#56517e;" parent="1" vertex="1">
          <mxGeometry x="-30" y="270" width="120" height="60" as="geometry" />
        </mxCell>
        <mxCell id="ssPy3o1DGzwiC5NNmDEJ-8" value="&lt;div&gt;&lt;font&gt;&amp;lt;&amp;lt;Output&amp;gt;&amp;gt;&lt;/font&gt;&lt;/div&gt;&lt;font&gt;Energy Consumption Meter Measured Energy Consumption&lt;/font&gt;" style="rounded=0;whiteSpace=wrap;html=1;fillColor=#b1ddf0;strokeColor=#10739e;" parent="1" vertex="1">
          <mxGeometry x="110" y="360" width="120" height="60" as="geometry" />
        </mxCell>
        <mxCell id="ssPy3o1DGzwiC5NNmDEJ-9" value="&lt;div&gt;&lt;font&gt;&amp;lt;&amp;lt;Procedure&amp;gt;&amp;gt;&lt;/font&gt;&lt;/div&gt;&lt;font&gt;Energy Consumption Meter Procedure&lt;/font&gt;" style="rounded=0;whiteSpace=wrap;html=1;fillColor=#bac8d3;strokeColor=#23445d;" parent="1" vertex="1">
          <mxGeometry x="-30" y="360" width="120" height="60" as="geometry" />
        </mxCell>
        <mxCell id="ssPy3o1DGzwiC5NNmDEJ-12" value="&lt;div&gt;&lt;font&gt;&amp;lt;&amp;lt;Actuator&amp;gt;&amp;gt;&lt;/font&gt;&lt;/div&gt;&lt;font&gt;Air Conditioning Unit&lt;/font&gt;" style="rounded=0;whiteSpace=wrap;html=1;fillColor=#ffe6cc;strokeColor=#d79b00;" parent="1" vertex="1">
          <mxGeometry x="610" y="220" width="120" height="60" as="geometry" />
        </mxCell>
        <mxCell id="ssPy3o1DGzwiC5NNmDEJ-19" value="&lt;div&gt;&lt;font&gt;&amp;lt;&amp;lt;OptimalCondition&amp;gt;&amp;gt;&lt;/font&gt;&lt;/div&gt;&lt;font&gt;Optimal Condition 1&lt;/font&gt;" style="rounded=0;whiteSpace=wrap;html=1;fillColor=#f5f5f5;fontColor=#333333;strokeColor=#666666;" parent="1" vertex="1">
          <mxGeometry x="270" y="220" width="120" height="60" as="geometry" />
        </mxCell>
        <mxCell id="ssPy3o1DGzwiC5NNmDEJ-23" value="&lt;div&gt;&lt;font&gt;&amp;lt;&amp;lt;Platform&amp;gt;&amp;gt;&lt;/font&gt;&lt;/div&gt;&lt;font&gt;Room M370&lt;/font&gt;" style="rounded=0;whiteSpace=wrap;html=1;fillColor=#cdeb8b;strokeColor=#36393d;" parent="1" vertex="1">
          <mxGeometry x="360" y="40" width="120" height="60" as="geometry" />
        </mxCell>
        <mxCell id="ssPy3o1DGzwiC5NNmDEJ-24" value="&lt;div&gt;&lt;font&gt;&amp;lt;&amp;lt;Observable&lt;/font&gt;&lt;/div&gt;&lt;div&gt;&lt;font&gt;Property&amp;gt;&amp;gt;&lt;/font&gt;&lt;/div&gt;&lt;font&gt;Room Temperature&lt;/font&gt;" style="rounded=0;whiteSpace=wrap;html=1;fillColor=#b0e3e6;strokeColor=#0e8088;" parent="1" vertex="1">
          <mxGeometry x="270" y="120" width="120" height="60" as="geometry" />
        </mxCell>
        <mxCell id="ssPy3o1DGzwiC5NNmDEJ-25" value="&lt;div&gt;&lt;font&gt;&amp;lt;&amp;lt;PropertyChange&lt;/font&gt;&lt;/div&gt;&lt;div&gt;&lt;font&gt;ByActuation&amp;gt;&amp;gt;&lt;/font&gt;&lt;/div&gt;&lt;font&gt;Room Temperature Increase&lt;/font&gt;" style="rounded=0;whiteSpace=wrap;html=1;fillColor=#d5e8d4;strokeColor=#82b366;" parent="1" vertex="1">
          <mxGeometry x="450" y="120" width="120" height="60" as="geometry" />
        </mxCell>
        <mxCell id="ssPy3o1DGzwiC5NNmDEJ-27" value="&lt;div&gt;&lt;font&gt;&amp;lt;&amp;lt;Sensor&amp;gt;&amp;gt;&lt;/font&gt;&lt;/div&gt;&lt;font&gt;Temperature Sensor 1&lt;/font&gt;" style="rounded=0;whiteSpace=wrap;html=1;fillColor=#d0cee2;strokeColor=#56517e;" parent="1" vertex="1">
          <mxGeometry x="-30" y="80" width="120" height="60" as="geometry" />
        </mxCell>
        <mxCell id="ssPy3o1DGzwiC5NNmDEJ-28" value="&lt;div&gt;&lt;font&gt;&amp;lt;&amp;lt;Output&amp;gt;&amp;gt;&lt;/font&gt;&lt;/div&gt;&lt;font&gt;Temperature Sensor 1 Measured Temperature&lt;/font&gt;" style="rounded=0;whiteSpace=wrap;html=1;fillColor=#b1ddf0;strokeColor=#10739e;" parent="1" vertex="1">
          <mxGeometry x="110" y="170" width="120" height="60" as="geometry" />
        </mxCell>
        <mxCell id="ssPy3o1DGzwiC5NNmDEJ-29" value="&lt;div&gt;&lt;font&gt;&amp;lt;&amp;lt;Procedure&amp;gt;&amp;gt;&lt;/font&gt;&lt;/div&gt;&lt;font&gt;Temperature Sensor 1 Procedure&lt;/font&gt;" style="rounded=0;whiteSpace=wrap;html=1;fillColor=#bac8d3;strokeColor=#23445d;" parent="1" vertex="1">
          <mxGeometry x="-30" y="170" width="120" height="60" as="geometry" />
        </mxCell>
        <mxCell id="ssPy3o1DGzwiC5NNmDEJ-35" value="&lt;div&gt;&lt;font&gt;&amp;lt;&amp;lt;PropertyChange&lt;/font&gt;&lt;/div&gt;&lt;div&gt;&lt;font&gt;ByActuation&amp;gt;&amp;gt;&lt;/font&gt;&lt;/div&gt;&lt;font&gt;Room Temperature Decrease&lt;/font&gt;" style="rounded=0;whiteSpace=wrap;html=1;fillColor=#d5e8d4;strokeColor=#82b366;" parent="1" vertex="1">
          <mxGeometry x="450" y="320" width="120" height="60" as="geometry" />
        </mxCell>
        <mxCell id="ssPy3o1DGzwiC5NNmDEJ-37" value="" style="endArrow=classic;html=1;rounded=0;entryX=0;entryY=0.5;entryDx=0;entryDy=0;exitX=0;exitY=0.5;exitDx=0;exitDy=0;" parent="1" source="ssPy3o1DGzwiC5NNmDEJ-23" target="ssPy3o1DGzwiC5NNmDEJ-7" edge="1">
          <mxGeometry width="50" height="50" relative="1" as="geometry">
            <mxPoint x="-20" y="70" as="sourcePoint" />
            <mxPoint x="-100" y="330" as="targetPoint" />
            <Array as="points">
              <mxPoint x="-50" y="70" />
              <mxPoint x="-50" y="300" />
            </Array>
          </mxGeometry>
        </mxCell>
        <mxCell id="ssPy3o1DGzwiC5NNmDEJ-38" value="" style="endArrow=classic;html=1;rounded=0;entryX=0;entryY=0.5;entryDx=0;entryDy=0;" parent="1" target="ssPy3o1DGzwiC5NNmDEJ-27" edge="1">
          <mxGeometry width="50" height="50" relative="1" as="geometry">
            <mxPoint x="-50" y="110" as="sourcePoint" />
            <mxPoint x="-60" y="130" as="targetPoint" />
          </mxGeometry>
        </mxCell>
        <mxCell id="ssPy3o1DGzwiC5NNmDEJ-39" value="" style="endArrow=classic;html=1;rounded=0;exitX=1.003;exitY=0.671;exitDx=0;exitDy=0;entryX=1;entryY=0.5;entryDx=0;entryDy=0;exitPerimeter=0;" parent="1" source="ssPy3o1DGzwiC5NNmDEJ-23" target="ssPy3o1DGzwiC5NNmDEJ-12" edge="1">
          <mxGeometry width="50" height="50" relative="1" as="geometry">
            <mxPoint x="640" y="100" as="sourcePoint" />
            <mxPoint x="910" y="380" as="targetPoint" />
            <Array as="points">
              <mxPoint x="750" y="80" />
              <mxPoint x="750" y="250" />
            </Array>
          </mxGeometry>
        </mxCell>
        <mxCell id="ssPy3o1DGzwiC5NNmDEJ-41" value="&lt;font&gt;hosts&lt;/font&gt;" style="text;html=1;align=center;verticalAlign=middle;whiteSpace=wrap;rounded=0;" parent="1" vertex="1">
          <mxGeometry x="250" y="56" width="60" height="10" as="geometry" />
        </mxCell>
        <mxCell id="ssPy3o1DGzwiC5NNmDEJ-42" value="&lt;font&gt;hosts&lt;/font&gt;" style="text;html=1;align=center;verticalAlign=middle;whiteSpace=wrap;rounded=0;" parent="1" vertex="1">
          <mxGeometry x="530" y="84" width="60" height="10" as="geometry" />
        </mxCell>
        <mxCell id="ssPy3o1DGzwiC5NNmDEJ-43" value="" style="endArrow=classic;html=1;rounded=0;exitX=0.5;exitY=1;exitDx=0;exitDy=0;entryX=0.5;entryY=0;entryDx=0;entryDy=0;" parent="1" source="ssPy3o1DGzwiC5NNmDEJ-27" target="ssPy3o1DGzwiC5NNmDEJ-29" edge="1">
          <mxGeometry width="50" height="50" relative="1" as="geometry">
            <mxPoint x="210" y="150" as="sourcePoint" />
            <mxPoint x="260" y="100" as="targetPoint" />
          </mxGeometry>
        </mxCell>
        <mxCell id="ssPy3o1DGzwiC5NNmDEJ-44" value="&lt;font&gt;implements&lt;/font&gt;" style="text;html=1;align=center;verticalAlign=middle;whiteSpace=wrap;rounded=0;" parent="1" vertex="1">
          <mxGeometry x="32" y="150" width="66" height="10" as="geometry" />
        </mxCell>
        <mxCell id="ssPy3o1DGzwiC5NNmDEJ-45" value="" style="endArrow=classic;html=1;rounded=0;exitX=0.5;exitY=1;exitDx=0;exitDy=0;entryX=0.5;entryY=1;entryDx=0;entryDy=0;" parent="1" source="ssPy3o1DGzwiC5NNmDEJ-29" target="ssPy3o1DGzwiC5NNmDEJ-28" edge="1">
          <mxGeometry width="50" height="50" relative="1" as="geometry">
            <mxPoint x="110" y="260" as="sourcePoint" />
            <mxPoint x="180" y="260" as="targetPoint" />
            <Array as="points">
              <mxPoint x="30" y="250" />
              <mxPoint x="170" y="250" />
            </Array>
          </mxGeometry>
        </mxCell>
        <mxCell id="ssPy3o1DGzwiC5NNmDEJ-46" value="&lt;font&gt;has output&lt;/font&gt;" style="text;html=1;align=center;verticalAlign=middle;whiteSpace=wrap;rounded=0;" parent="1" vertex="1">
          <mxGeometry x="70" y="237" width="60" height="10" as="geometry" />
        </mxCell>
        <mxCell id="ssPy3o1DGzwiC5NNmDEJ-47" value="" style="endArrow=classic;html=1;rounded=0;exitX=0.5;exitY=1;exitDx=0;exitDy=0;entryX=0.5;entryY=0;entryDx=0;entryDy=0;" parent="1" source="ssPy3o1DGzwiC5NNmDEJ-7" target="ssPy3o1DGzwiC5NNmDEJ-9" edge="1">
          <mxGeometry width="50" height="50" relative="1" as="geometry">
            <mxPoint x="140" y="350" as="sourcePoint" />
            <mxPoint x="190" y="300" as="targetPoint" />
          </mxGeometry>
        </mxCell>
        <mxCell id="ssPy3o1DGzwiC5NNmDEJ-48" value="" style="endArrow=classic;html=1;rounded=0;exitX=0.5;exitY=1;exitDx=0;exitDy=0;entryX=0.5;entryY=1;entryDx=0;entryDy=0;" parent="1" source="ssPy3o1DGzwiC5NNmDEJ-9" target="ssPy3o1DGzwiC5NNmDEJ-8" edge="1">
          <mxGeometry width="50" height="50" relative="1" as="geometry">
            <mxPoint x="110" y="380" as="sourcePoint" />
            <mxPoint x="160" y="330" as="targetPoint" />
            <Array as="points">
              <mxPoint x="30" y="440" />
              <mxPoint x="170" y="440" />
            </Array>
          </mxGeometry>
        </mxCell>
        <mxCell id="ssPy3o1DGzwiC5NNmDEJ-49" value="&lt;font&gt;has output&lt;/font&gt;" style="text;html=1;align=center;verticalAlign=middle;whiteSpace=wrap;rounded=0;" parent="1" vertex="1">
          <mxGeometry x="70" y="427" width="60" height="10" as="geometry" />
        </mxCell>
        <mxCell id="ssPy3o1DGzwiC5NNmDEJ-50" value="&lt;font&gt;implements&lt;/font&gt;" style="text;html=1;align=center;verticalAlign=middle;whiteSpace=wrap;rounded=0;" parent="1" vertex="1">
          <mxGeometry x="32" y="338" width="66" height="10" as="geometry" />
        </mxCell>
        <mxCell id="ssPy3o1DGzwiC5NNmDEJ-57" value="" style="endArrow=classic;html=1;rounded=0;exitX=1;exitY=0.5;exitDx=0;exitDy=0;entryX=0;entryY=0.5;entryDx=0;entryDy=0;" parent="1" source="ssPy3o1DGzwiC5NNmDEJ-27" target="ssPy3o1DGzwiC5NNmDEJ-24" edge="1">
          <mxGeometry width="50" height="50" relative="1" as="geometry">
            <mxPoint x="130" y="150" as="sourcePoint" />
            <mxPoint x="180" y="100" as="targetPoint" />
            <Array as="points">
              <mxPoint x="250" y="110" />
              <mxPoint x="250" y="150" />
            </Array>
          </mxGeometry>
        </mxCell>
        <mxCell id="ssPy3o1DGzwiC5NNmDEJ-58" value="&lt;font&gt;observes&lt;/font&gt;" style="text;html=1;align=center;verticalAlign=middle;whiteSpace=wrap;rounded=0;" parent="1" vertex="1">
          <mxGeometry x="150" y="96" width="60" height="10" as="geometry" />
        </mxCell>
        <mxCell id="ssPy3o1DGzwiC5NNmDEJ-60" value="" style="endArrow=classic;html=1;rounded=0;exitX=1;exitY=0.5;exitDx=0;exitDy=0;entryX=0;entryY=0.5;entryDx=0;entryDy=0;" parent="1" source="ssPy3o1DGzwiC5NNmDEJ-7" target="ssPy3o1DGzwiC5NNmDEJ-4" edge="1">
          <mxGeometry width="50" height="50" relative="1" as="geometry">
            <mxPoint x="43" y="302" as="sourcePoint" />
            <mxPoint x="160" y="280" as="targetPoint" />
            <Array as="points">
              <mxPoint x="250" y="300" />
              <mxPoint x="250" y="350" />
            </Array>
          </mxGeometry>
        </mxCell>
        <mxCell id="ssPy3o1DGzwiC5NNmDEJ-61" value="&lt;font&gt;observes&lt;/font&gt;" style="text;html=1;align=center;verticalAlign=middle;whiteSpace=wrap;rounded=0;" parent="1" vertex="1">
          <mxGeometry x="143" y="287" width="60" height="10" as="geometry" />
        </mxCell>
        <mxCell id="ssPy3o1DGzwiC5NNmDEJ-63" value="" style="endArrow=classic;html=1;rounded=0;exitX=0.5;exitY=0;exitDx=0;exitDy=0;entryX=0.5;entryY=1;entryDx=0;entryDy=0;" parent="1" edge="1">
          <mxGeometry width="50" height="50" relative="1" as="geometry">
            <mxPoint x="330" y="220" as="sourcePoint" />
            <mxPoint x="330" y="180" as="targetPoint" />
          </mxGeometry>
        </mxCell>
        <mxCell id="ssPy3o1DGzwiC5NNmDEJ-66" value="&lt;font&gt;for property&lt;/font&gt;" style="text;html=1;align=center;verticalAlign=middle;whiteSpace=wrap;rounded=0;" parent="1" vertex="1">
          <mxGeometry x="375" y="185" width="70" height="10" as="geometry" />
        </mxCell>
        <mxCell id="ssPy3o1DGzwiC5NNmDEJ-70" value="" style="endArrow=classic;html=1;rounded=0;exitX=0.5;exitY=1;exitDx=0;exitDy=0;" parent="1" source="ssPy3o1DGzwiC5NNmDEJ-25" edge="1">
          <mxGeometry width="50" height="50" relative="1" as="geometry">
            <mxPoint x="560" y="210" as="sourcePoint" />
            <mxPoint x="330" y="180" as="targetPoint" />
            <Array as="points">
              <mxPoint x="510" y="200" />
              <mxPoint x="330" y="200" />
            </Array>
          </mxGeometry>
        </mxCell>
        <mxCell id="ssPy3o1DGzwiC5NNmDEJ-71" value="" style="endArrow=classic;html=1;rounded=0;exitX=-0.003;exitY=0.666;exitDx=0;exitDy=0;entryX=0.5;entryY=1;entryDx=0;entryDy=0;exitPerimeter=0;" parent="1" source="ssPy3o1DGzwiC5NNmDEJ-35" target="ssPy3o1DGzwiC5NNmDEJ-24" edge="1">
          <mxGeometry width="50" height="50" relative="1" as="geometry">
            <mxPoint x="450" y="342" as="sourcePoint" />
            <mxPoint x="410" y="212" as="targetPoint" />
            <Array as="points">
              <mxPoint x="410" y="360" />
              <mxPoint x="410" y="200" />
              <mxPoint x="330" y="200" />
            </Array>
          </mxGeometry>
        </mxCell>
        <mxCell id="ssPy3o1DGzwiC5NNmDEJ-72" value="" style="endArrow=classic;html=1;rounded=0;exitX=0;exitY=0.5;exitDx=0;exitDy=0;entryX=0.999;entryY=0.33;entryDx=0;entryDy=0;entryPerimeter=0;jumpStyle=arc;" parent="1" source="ssPy3o1DGzwiC5NNmDEJ-5" target="ssPy3o1DGzwiC5NNmDEJ-4" edge="1">
          <mxGeometry width="50" height="50" relative="1" as="geometry">
            <mxPoint x="370" y="430" as="sourcePoint" />
            <mxPoint x="420" y="380" as="targetPoint" />
            <Array as="points">
              <mxPoint x="430" y="250" />
              <mxPoint x="430" y="340" />
            </Array>
          </mxGeometry>
        </mxCell>
        <mxCell id="ssPy3o1DGzwiC5NNmDEJ-73" value="&lt;font&gt;for property&lt;/font&gt;" style="text;html=1;align=center;verticalAlign=middle;whiteSpace=wrap;rounded=0;" parent="1" vertex="1">
          <mxGeometry x="430" y="296" width="70" height="8" as="geometry" />
        </mxCell>
        <mxCell id="ssPy3o1DGzwiC5NNmDEJ-77" value="&lt;font&gt;enacts&lt;/font&gt;" style="text;html=1;align=center;verticalAlign=middle;whiteSpace=wrap;rounded=0;" parent="1" vertex="1">
          <mxGeometry x="592" y="304" width="40" height="5" as="geometry" />
        </mxCell>
        <mxCell id="ssPy3o1DGzwiC5NNmDEJ-86" value="" style="endArrow=classic;html=1;rounded=0;exitX=0.998;exitY=0.33;exitDx=0;exitDy=0;exitPerimeter=0;entryX=1;entryY=0.5;entryDx=0;entryDy=0;" parent="1" source="ssPy3o1DGzwiC5NNmDEJ-23" target="ssPy3o1DGzwiC5NNmDEJ-6" edge="1">
          <mxGeometry width="50" height="50" relative="1" as="geometry">
            <mxPoint x="520" y="50" as="sourcePoint" />
            <mxPoint x="940" y="460" as="targetPoint" />
            <Array as="points">
              <mxPoint x="770" y="60" />
              <mxPoint x="770" y="450" />
            </Array>
          </mxGeometry>
        </mxCell>
        <mxCell id="ssPy3o1DGzwiC5NNmDEJ-88" value="&lt;font&gt;optimizesFor&lt;/font&gt;" style="text;html=1;align=center;verticalAlign=middle;whiteSpace=wrap;rounded=0;" parent="1" vertex="1">
          <mxGeometry x="521" y="47" width="80" height="7" as="geometry" />
        </mxCell>
        <mxCell id="AHH-V25yqIQcLWXXxbjB-1" value="" style="rounded=0;whiteSpace=wrap;html=1;fillColor=#cdeb8b;strokeColor=#36393d;" parent="1" vertex="1">
          <mxGeometry x="-30" y="460" width="20" height="20" as="geometry" />
        </mxCell>
        <mxCell id="AHH-V25yqIQcLWXXxbjB-2" value="" style="rounded=0;whiteSpace=wrap;html=1;fillColor=#e1d5e7;strokeColor=#666666;" parent="1" vertex="1">
          <mxGeometry y="460" width="20" height="20" as="geometry" />
        </mxCell>
        <mxCell id="AHH-V25yqIQcLWXXxbjB-3" value="" style="rounded=0;whiteSpace=wrap;html=1;fillColor=#bac8d3;strokeColor=#23445d;" parent="1" vertex="1">
          <mxGeometry x="30" y="460" width="20" height="20" as="geometry" />
        </mxCell>
        <mxCell id="AHH-V25yqIQcLWXXxbjB-4" value="" style="rounded=0;whiteSpace=wrap;html=1;fillColor=#b0e3e6;strokeColor=#0e8088;" parent="1" vertex="1">
          <mxGeometry x="60" y="460" width="20" height="20" as="geometry" />
        </mxCell>
        <mxCell id="AHH-V25yqIQcLWXXxbjB-5" value=":&amp;nbsp; &amp;nbsp;SOSA" style="text;html=1;align=center;verticalAlign=middle;whiteSpace=wrap;rounded=0;" parent="1" vertex="1">
          <mxGeometry x="90" y="460" width="50" height="20" as="geometry" />
        </mxCell>
        <mxCell id="AHH-V25yqIQcLWXXxbjB-6" value="" style="rounded=0;whiteSpace=wrap;html=1;fillColor=#f5f5f5;fontColor=#333333;strokeColor=#666666;" parent="1" vertex="1">
          <mxGeometry x="-30" y="490" width="20" height="20" as="geometry" />
        </mxCell>
        <mxCell id="AHH-V25yqIQcLWXXxbjB-7" value="" style="rounded=0;whiteSpace=wrap;html=1;fillColor=#d5e8d4;strokeColor=#82b366;" parent="1" vertex="1">
          <mxGeometry y="490" width="20" height="20" as="geometry" />
        </mxCell>
        <mxCell id="AHH-V25yqIQcLWXXxbjB-8" value="" style="rounded=0;whiteSpace=wrap;html=1;fillColor=#fff2cc;strokeColor=#d6b656;" parent="1" vertex="1">
          <mxGeometry x="30" y="490" width="20" height="20" as="geometry" />
        </mxCell>
        <mxCell id="AHH-V25yqIQcLWXXxbjB-9" value=":&amp;nbsp; &amp;nbsp;Our extension" style="text;html=1;align=center;verticalAlign=middle;whiteSpace=wrap;rounded=0;" parent="1" vertex="1">
          <mxGeometry x="81" y="490" width="110" height="20" as="geometry" />
        </mxCell>
        <mxCell id="4R2DrcMHLHbAf5RJaz1p-1" value="" style="endArrow=classic;html=1;rounded=0;exitX=0;exitY=0.5;exitDx=0;exitDy=0;entryX=1;entryY=0.5;entryDx=0;entryDy=0;" parent="1" source="ssPy3o1DGzwiC5NNmDEJ-12" target="ssPy3o1DGzwiC5NNmDEJ-25" edge="1">
          <mxGeometry width="50" height="50" relative="1" as="geometry">
            <mxPoint x="680" y="350" as="sourcePoint" />
            <mxPoint x="590" y="200" as="targetPoint" />
            <Array as="points">
              <mxPoint x="590" y="250" />
              <mxPoint x="590" y="150" />
            </Array>
          </mxGeometry>
        </mxCell>
        <mxCell id="4R2DrcMHLHbAf5RJaz1p-3" value="" style="endArrow=classic;html=1;rounded=0;exitX=0;exitY=0.5;exitDx=0;exitDy=0;entryX=1;entryY=0.5;entryDx=0;entryDy=0;" parent="1" source="ssPy3o1DGzwiC5NNmDEJ-12" target="ssPy3o1DGzwiC5NNmDEJ-5" edge="1">
          <mxGeometry width="50" height="50" relative="1" as="geometry">
            <mxPoint x="660" y="310" as="sourcePoint" />
            <mxPoint x="710" y="260" as="targetPoint" />
            <Array as="points">
              <mxPoint x="590" y="250" />
            </Array>
          </mxGeometry>
        </mxCell>
        <mxCell id="4R2DrcMHLHbAf5RJaz1p-4" value="" style="endArrow=classic;html=1;rounded=0;exitX=0;exitY=0.5;exitDx=0;exitDy=0;entryX=1;entryY=0.5;entryDx=0;entryDy=0;" parent="1" source="ssPy3o1DGzwiC5NNmDEJ-12" target="ssPy3o1DGzwiC5NNmDEJ-35" edge="1">
          <mxGeometry width="50" height="50" relative="1" as="geometry">
            <mxPoint x="710" y="320" as="sourcePoint" />
            <mxPoint x="760" y="270" as="targetPoint" />
            <Array as="points">
              <mxPoint x="590" y="250" />
              <mxPoint x="590" y="350" />
            </Array>
          </mxGeometry>
        </mxCell>
        <mxCell id="zcsZPnXtR6EBKaZVvDBs-1" value="" style="endArrow=classic;html=1;rounded=0;exitX=0;exitY=0.5;exitDx=0;exitDy=0;entryX=0.5;entryY=1;entryDx=0;entryDy=0;" parent="1" source="ssPy3o1DGzwiC5NNmDEJ-6" target="ssPy3o1DGzwiC5NNmDEJ-4" edge="1">
          <mxGeometry width="50" height="50" relative="1" as="geometry">
            <mxPoint x="410" y="550" as="sourcePoint" />
            <mxPoint x="340" y="410" as="targetPoint" />
            <Array as="points">
              <mxPoint x="330" y="450" />
            </Array>
          </mxGeometry>
        </mxCell>
        <mxCell id="zcsZPnXtR6EBKaZVvDBs-2" value="for property" style="text;html=1;align=center;verticalAlign=middle;whiteSpace=wrap;rounded=0;" parent="1" vertex="1">
          <mxGeometry x="350" y="454" width="70" height="10" as="geometry" />
        </mxCell>
      </root>
    </mxGraphModel>
  </diagram>
</mxfile>
